<svg xmlns="http://www.w3.org/2000/svg" viewBox="0 0 500 500"><g id="freepik--background-complete--inject-38"><path d="M189.37,192a14.7,14.7,0,0,1-1,5.62,9.32,9.32,0,0,1-4.21,4.34c-.64.38-1.43.82-2.36,1.31A19.51,19.51,0,0,0,179,205a10.25,10.25,0,0,0-2.26,2.39,5.51,5.51,0,0,0-.93,3.16,5.25,5.25,0,0,0,1.86,4.09,5.43,5.43,0,0,0,1.94,1,7.68,7.68,0,0,0,2.27.35,6.58,6.58,0,0,0,2.55-.48,8.65,8.65,0,0,0,2.07-1.21,10,10,0,0,0,1.66-1.66,18.91,18.91,0,0,0,1.25-1.75l5.55,3.82a12.63,12.63,0,0,1-2.2,3.51,13.38,13.38,0,0,1-3.13,2.59,14.69,14.69,0,0,1-3.8,1.59,16.37,16.37,0,0,1-4.21.55,16.69,16.69,0,0,1-4.79-.71,12.07,12.07,0,0,1-4.24-2.23,11.68,11.68,0,0,1-3.06-3.92,12.76,12.76,0,0,1-1.18-5.71,12.28,12.28,0,0,1,.48-3.61,10,10,0,0,1,1.37-2.84,12,12,0,0,1,2.1-2.3,23.42,23.42,0,0,1,2.75-2q1.28-.78,2.55-1.47a15.06,15.06,0,0,0,2.33-1.57,7.65,7.65,0,0,0,1.72-2,5.18,5.18,0,0,0,.67-2.72Zm-.13-14.86v8.8h-7.08v-8.8Z" style="fill:#ebebeb"></path><path d="M310.63,179a14.7,14.7,0,0,1,1-5.62,9.32,9.32,0,0,1,4.21-4.34c.64-.38,1.43-.82,2.36-1.31A19.51,19.51,0,0,0,321,166a10.25,10.25,0,0,0,2.26-2.39,5.51,5.51,0,0,0,.93-3.16,5.25,5.25,0,0,0-1.86-4.09,5.43,5.43,0,0,0-1.94-1.05,7.68,7.68,0,0,0-2.27-.35,6.58,6.58,0,0,0-2.55.48,8.65,8.65,0,0,0-2.07,1.21,10,10,0,0,0-1.66,1.66,18.91,18.91,0,0,0-1.25,1.75L305,156.25a12.63,12.63,0,0,1,2.2-3.51,13.63,13.63,0,0,1,3.13-2.59,14.69,14.69,0,0,1,3.8-1.59,16.37,16.37,0,0,1,4.21-.55,16.69,16.69,0,0,1,4.79.71,12.07,12.07,0,0,1,4.24,2.23,11.68,11.68,0,0,1,3.06,3.92,12.76,12.76,0,0,1,1.18,5.71,12.28,12.28,0,0,1-.48,3.61,10,10,0,0,1-1.37,2.84,12,12,0,0,1-2.1,2.3,23.42,23.42,0,0,1-2.75,2q-1.28.78-2.55,1.47a15.06,15.06,0,0,0-2.33,1.57,7.65,7.65,0,0,0-1.72,2,5.18,5.18,0,0,0-.67,2.72Zm.13,14.86v-8.8h7.08v8.8Z" style="fill:#ebebeb"></path><path d="M255.67,82.68a10.72,10.72,0,0,1-.76,4.14,6.86,6.86,0,0,1-3.1,3.2q-.7.42-1.74,1a14.3,14.3,0,0,0-2,1.29A7.2,7.2,0,0,0,246.38,94a4,4,0,0,0-.69,2.33,3.9,3.9,0,0,0,.38,1.74,4,4,0,0,0,1,1.27,4.2,4.2,0,0,0,1.43.77,5.65,5.65,0,0,0,1.67.26,5,5,0,0,0,1.89-.35,6.56,6.56,0,0,0,1.52-.9,7.47,7.47,0,0,0,1.23-1.22,13.58,13.58,0,0,0,.91-1.29l4.1,2.82a9.23,9.23,0,0,1-1.63,2.59,10,10,0,0,1-2.3,1.9,10.86,10.86,0,0,1-2.8,1.18,12.31,12.31,0,0,1-3.1.4,12.47,12.47,0,0,1-3.53-.52,9,9,0,0,1-3.13-1.65,8.52,8.52,0,0,1-2.26-2.89,9.44,9.44,0,0,1-.87-4.21,9.32,9.32,0,0,1,.35-2.66,7.52,7.52,0,0,1,1-2.09,8.26,8.26,0,0,1,1.55-1.69,16.42,16.42,0,0,1,2-1.46c.63-.38,1.26-.74,1.88-1.08a11.24,11.24,0,0,0,1.72-1.16A5.62,5.62,0,0,0,250,84.68a3.83,3.83,0,0,0,.49-2Zm-.1-11v6.49h-5.22V71.72Z" style="fill:#ebebeb"></path><path d="M415.59,336.33l14-.28,6.89-.11c2.29-.05,4.57,0,6.86-.06l-.45.45-.05-11.72.5.5L429.45,325c-4.62,0-9.24-.11-13.86-.16l.27-.27c0,1.92-.09,3.85-.13,5.8Zm0,0-.15-5.8c0-2-.11-3.93-.13-5.92v-.27h.28c4.62-.06,9.24-.16,13.86-.17l13.87-.06h.5v.5l-.06,11.72v.45h-.44c-2.34,0-4.68,0-7,0l-7-.11Z" style="fill:#ebebeb"></path><path d="M431.06,351.1l14-.27,6.89-.12c2.29,0,4.57,0,6.86,0l-.45.44,0-11.71.5.49-13.87-.06c-4.62,0-9.24-.11-13.86-.16l.27-.27c0,1.91-.09,3.84-.13,5.8Zm0,0-.15-5.8c0-1.95-.11-3.93-.13-5.91v-.27h.28c4.62-.05,9.24-.16,13.86-.16l13.87-.06h.5v.51l-.05,11.71v.45h-.44c-2.34,0-4.68,0-7-.06l-7-.11Z" style="fill:#ebebeb"></path><path d="M115.68,196.36l14-.28,6.89-.11c2.29,0,4.57,0,6.86-.05l-.45.44-.05-11.72.5.5-13.87-.06c-4.62,0-9.24-.11-13.86-.16l.27-.28c0,1.92-.09,3.85-.13,5.8Zm0,0-.14-5.8c-.05-1.95-.12-3.93-.14-5.92v-.27h.28c4.62-.05,9.24-.16,13.86-.16l13.87-.07h.5v.5l0,11.72v.45h-.44c-2.34,0-4.68,0-7-.06l-7-.11Z" style="fill:#ebebeb"></path><path d="M131.4,211.14l14-.28,6.89-.11c2.29-.05,4.57,0,6.86-.06l-.45.45-.05-11.72.5.5-13.87-.06c-4.62,0-9.24-.11-13.87-.17l.28-.27c0,1.92-.09,3.85-.13,5.8Zm0,0-.14-5.8c0-2-.11-3.93-.13-5.92v-.27h.27c4.63-.05,9.25-.16,13.87-.17l13.87-.06h.5v.5l-.06,11.72v.45h-.44c-2.34,0-4.68,0-7-.06l-7-.11Z" style="fill:#ebebeb"></path><path d="M41.21,351.1l14-.27,6.89-.12c2.3,0,4.58,0,6.86,0l-.44.44-.06-11.71.5.49-13.86-.06c-4.63,0-9.25-.11-13.87-.16l.27-.27c0,1.91-.08,3.84-.13,5.8Zm0,0-.14-5.8c0-1.95-.11-3.93-.13-5.91v-.27h.27c4.62-.05,9.24-.16,13.87-.16l13.86-.06h.51v.51l0,11.71v.45h-.45c-2.33,0-4.67,0-7-.06l-7-.11Z" style="fill:#ebebeb"></path><path d="M56.68,73.85l14-.28,6.89-.11c2.3,0,4.58,0,6.86,0l-.44.44-.06-11.72.5.5-13.86-.06c-4.62,0-9.25-.11-13.87-.17l.27-.27c0,1.92-.08,3.85-.13,5.8Zm0,0-.14-5.8c0-2-.11-3.93-.13-5.92v-.27h.27c4.62,0,9.25-.16,13.87-.16l13.86-.07h.51v.5l0,11.72v.45h-.45c-2.33,0-4.67,0-7-.06l-7-.11Z" style="fill:#ebebeb"></path><path d="M41.21,88.63l14-.28,6.89-.11c2.3,0,4.58,0,6.86-.06l-.44.45-.06-11.72.5.5-13.86-.06c-4.63,0-9.25-.12-13.87-.17l.27-.27c0,1.92-.08,3.85-.13,5.8Zm0,0-.14-5.8c0-2-.11-3.93-.13-5.92v-.27h.27c4.62-.06,9.24-.16,13.87-.17l13.86-.06h.51v.5l0,11.72v.45h-.45c-2.33,0-4.67,0-7,0l-7-.11Z" style="fill:#ebebeb"></path><path d="M431.06,73.85l14-.28,6.89-.11c2.29,0,4.57,0,6.86,0l-.45.44,0-11.72.5.5-13.87-.06c-4.62,0-9.24-.11-13.86-.17l.27-.27c0,1.92-.09,3.85-.13,5.8Zm0,0-.15-5.8c0-2-.11-3.93-.13-5.92v-.27h.28c4.62,0,9.24-.16,13.86-.16l13.87-.07h.5v.5l-.05,11.72v.45h-.44c-2.34,0-4.68,0-7-.06l-7-.11Z" style="fill:#ebebeb"></path><path d="M147.13,196.36l14-.28L168,196c2.29,0,4.57,0,6.86-.05l-.45.44,0-11.72.5.5L161,185.08c-4.62,0-9.25-.11-13.87-.16l.28-.28c0,1.92-.09,3.85-.14,5.8Zm0,0-.14-5.8c0-1.95-.11-3.93-.13-5.92v-.27h.27c4.62-.05,9.25-.16,13.87-.16l13.87-.07h.5v.5l-.05,11.72v.45h-.44c-2.34,0-4.68,0-7-.06l-7-.11Z" style="fill:#ebebeb"></path><rect x="54.68" y="422.6" width="79.69" height="17.14" style="fill:#c7c7c7"></rect><rect x="76.57" y="422.6" width="7.48" height="17.14" style="fill:#dbdbdb"></rect><rect x="68.1" y="422.6" width="2.77" height="17.14" style="fill:#dbdbdb"></rect><rect x="117.97" y="422.6" width="7.48" height="17.14" style="fill:#dbdbdb"></rect><rect x="51.53" y="410.62" width="91.02" height="11.98" style="fill:#dbdbdb"></rect><rect x="58.99" y="413.07" width="30.53" height="7.19" style="fill:#ebebeb"></rect><rect x="53.78" y="394.74" width="71.94" height="15.89" style="fill:#a6a6a6"></rect><rect x="113.7" y="394.74" width="5.62" height="15.89" style="fill:#c7c7c7"></rect><rect x="107.83" y="394.74" width="2.18" height="15.89" style="fill:#c7c7c7"></rect><rect x="115.62" y="398.33" width="71.14" height="17.64" transform="translate(357.09 24.75) rotate(48.67)" style="fill:#a6a6a6"></rect><rect x="164.19" y="416.89" width="6.63" height="17.64" transform="translate(376.56 18.79) rotate(48.67)" style="fill:#c7c7c7"></rect><rect x="136.26" y="385.12" width="6.63" height="17.64" transform="translate(343.23 28.99) rotate(48.67)" style="fill:#c7c7c7"></rect><rect x="144.32" y="391.98" width="2.57" height="17.64" transform="translate(350.41 26.77) rotate(48.67)" style="fill:#c7c7c7"></rect></g><g id="freepik--Plant--inject-38"><path d="M403.43,396.7s9.33-33.5,16.79-44.88,21.35-23.88,21.35-23.88S441.24,379.6,403.43,396.7Z" style="fill:#FFC727"></path><path d="M404.1,396.13a163.54,163.54,0,0,0,8.51-16.23,112.52,112.52,0,0,1,4.63-17.62c0-.11.19,0,.17.06-1.24,5.29-2.68,10.54-4,15.81,3.77-8.15,7.35-16.41,11.83-24.12a52,52,0,0,1,4.33-10.72c.05-.09.21,0,.17.06a70.37,70.37,0,0,0-2.92,8,80.19,80.19,0,0,1,7.1-9.79c.16-.19.49,0,.33.22-6,7.66-10.15,16.37-14.09,25.2a134.84,134.84,0,0,0,11.71-14.64c0-.06.12,0,.08.05a119.1,119.1,0,0,1-12.54,16.26c-2.87,6.46-5.7,13-9.12,19.1,6.84-5.78,12.11-13.27,17.32-20.49a.15.15,0,0,1,.25.18c-5.21,7.92-10.6,15.38-18.1,21.25a84.46,84.46,0,0,1-5,7.83A.4.4,0,0,1,404.1,396.13Z" style="fill:#263238"></path><path d="M400.53,399.72s16.78-30.89,11.91-60.84-10.09-40.62-10.09-40.62S376,344.84,400.53,399.72Z" style="fill:#FFC727"></path><path d="M393.65,351.15a146.31,146.31,0,0,0,6.47,25c.05-11,.26-22,.55-33a84.85,84.85,0,0,1-3.16-20.47c0-.2.29-.19.31,0a117.25,117.25,0,0,0,2.94,17.61q.38-13.59.88-27.19a.12.12,0,0,1,.24,0c0,14.16,0,28.33-.09,42.5a114.09,114.09,0,0,0,4.83-16.83c0-.06.1,0,.1,0-.5,6.62-2.52,13-5,19.15-.07,9.06-.17,18.11-.37,27.16,2.84-9.62,5.87-18.95,6.69-29.12a.11.11,0,0,1,.22,0c-.23,11.21-3.12,22.6-6.82,33.15a.57.57,0,0,1-.18.26c-.09,3.31-.18,6.62-.29,9.93a.37.37,0,0,1-.74,0q-.19-10.16-.17-20.31a91.27,91.27,0,0,1-6.61-27.81C393.49,351.09,393.63,351.07,393.65,351.15Z" style="fill:#263238"></path><path d="M394.8,346.38a57.48,57.48,0,0,1,1.17,8.16.08.08,0,0,1-.16,0,58.88,58.88,0,0,1-1.38-8.14C394.41,346.21,394.76,346.17,394.8,346.38Z" style="fill:#263238"></path><path d="M404.61,323.79c0-.09.16-.06.16,0a21.49,21.49,0,0,1-.84,5.63.12.12,0,0,1-.23-.07C404.06,327.52,404.29,325.66,404.61,323.79Z" style="fill:#263238"></path><path d="M394.42,402.08s.68-32.24-8.57-48.27-24.59-24.2-24.59-24.2S367.44,386.46,394.42,402.08Z" style="fill:#FFC727"></path><path d="M377.56,374.51a120,120,0,0,0,12.52,15.87q-2.77-9.9-6.41-19.45c-5.18-4.55-10.33-9.26-13.51-15.48-.05-.1.09-.19.15-.09,3.42,5.51,8,9.92,12.81,14.16a248.59,248.59,0,0,0-12.87-28,.2.2,0,0,1,.35-.21A152.18,152.18,0,0,1,378.67,356c-.86-3.45-1.56-7-2.45-10.4a.08.08,0,0,1,.15,0,58.79,58.79,0,0,1,3.8,13.68,163.52,163.52,0,0,1,8.14,22.07c-.23-4.84-.54-9.65-1-14.47,0-.09.15-.11.16,0a78.35,78.35,0,0,1,1.41,16.24q2,7.21,3.35,14.57c0,.13-.17.19-.2.05-.5-2.05-1.05-4.09-1.61-6.12a.21.21,0,0,1-.1,0c-5-5-9.67-10.64-12.77-17A0,0,0,1,1,377.56,374.51Z" style="fill:#263238"></path><path d="M366.84,348.27c1,1.11,2,2.28,3,3.43a25.27,25.27,0,0,1,2.66,3.11.05.05,0,0,1-.07.07,15.73,15.73,0,0,1-3.07-3,26,26,0,0,1-2.64-3.47C366.64,348.29,366.77,348.19,366.84,348.27Z" style="fill:#263238"></path><path d="M421.9,398.15l-1.17,10.34-3.51,31.25H386.57l-3.51-31.25-1.17-10.34h40Z" style="fill:#455a64"></path><path d="M421.9,398.15l-1.17,10.34H383.06l-1.17-10.34h40Z" style="fill:#37474f"></path><rect x="379.17" y="390.65" width="45.45" height="11.71" transform="translate(803.79 793.02) rotate(180)" style="fill:#455a64"></rect></g><g id="freepik--Table--inject-38"><polygon points="48.98 440 99.24 439.76 149.49 439.67 250 439.5 350.51 439.67 400.76 439.75 451.02 440 400.76 440.24 350.51 440.33 250 440.5 149.49 440.33 99.24 440.24 48.98 440" style="fill:#263238"></polygon></g><g id="freepik--Arrows--inject-38"><polygon points="187.73 98.95 187.73 150.82 95.61 150.82 95.61 163.01 50.67 120.91 91.58 82.78 95.61 86.76 95.61 94.98 183.69 94.98 187.73 98.95" style="fill:#FFC727"></polygon><g style="opacity:0.1"><polygon points="187.73 98.95 187.73 150.82 95.61 150.82 95.61 163.01 50.67 120.91 91.58 82.78 95.61 86.76 95.61 94.98 183.69 94.98 187.73 98.95"></polygon></g><rect x="91.58" y="94.98" width="92.11" height="51.87" style="fill:#FFC727"></rect><polygon points="91.58 159.03 91.58 82.78 50.67 120.91 91.58 159.03" style="fill:#FFC727"></polygon><polygon points="408.43 163.01 404.39 159.03 404.39 150.82 316.31 150.82 312.28 146.84 312.28 94.98 404.39 94.98 404.39 82.78 449.33 124.89 408.43 163.01" style="fill:#37474f"></polygon><rect x="312.28" y="94.98" width="92.11" height="51.87" transform="translate(716.67 241.82) rotate(180)" style="fill:#455a64"></rect><polygon points="404.39 82.78 404.39 159.03 445.3 120.91 404.39 82.78" style="fill:#455a64"></polygon></g><g id="freepik--Character--inject-38"><path d="M280.61,360l0,.14s0,.06,0,.1,0,.16-.05.27l0,.18a3.08,3.08,0,0,0-.07.39c0,.09,0,.18-.05.28s-.07.42-.12.66-.15.81-.23,1.29l-.45,2.44c-.05.26-.1.54-.15.83s-.14.78-.22,1.19-.16.92-.25,1.41a0,0,0,0,0,0,0c-.06.34-.13.69-.19,1.05-.19,1.07-.39,2.21-.62,3.43a.29.29,0,0,0,0,.09c-.24,1.36-.5,2.82-.78,4.35-.07.4-.15.8-.23,1.2s-.16.84-.23,1.26c0,0,0,0,0,0,0,.26-.09.53-.15.8v0q-.57,3.19-1.23,6.76c-.15.8-.29,1.61-.44,2.43-.29,1.6-.59,3.24-.9,4.93-.08.39-.15.78-.21,1.18q-.68,3.67-1.39,7.64c-.06.27-.1.54-.15.81-.23,1.24-.46,2.49-.68,3.77a1.59,1.59,0,0,0-.06.3l-.33,1.82q-.66,3.66-1.36,7.49c-.12.63-.24,1.27-.35,1.92-.23,1.29-.47,2.59-.71,3.9-.3,1.63-.6,3.27-.9,4.94s-.6,3.34-.91,5c-.16.85-.31,1.7-.47,2.55-.18,1-.37,2-.55,3.07H179.75c10.66-44.29,19.65-80,19.65-80Z" style="fill:#37474f"></path><path d="M267.55,370q-6.49,35-13.12,70h-1.2c4.59-23.39,9.32-46.74,14-70.1C267.3,369.68,267.58,369.77,267.55,370Z" style="fill:#37474f"></path><path d="M280.6,360s0,.05,0,.14,0,.06,0,.1,0,.16-.05.27l0,.18a3.08,3.08,0,0,0-.07.39c0,.09,0,.18-.05.28s-.08.42-.12.66-.15.81-.23,1.29c-.14.71-.28,1.52-.45,2.44-.05.26-.1.54-.15.83s-.14.78-.22,1.19-.16.92-.25,1.41a0,0,0,0,0,0,0c-.06.34-.13.69-.19,1.05-.2,1.07-.4,2.21-.62,3.43a.29.29,0,0,0,0,.09c-.25,1.36-.51,2.8-.79,4.33-.08.4-.15.81-.22,1.22s-.16.84-.23,1.26c0,0,0,0,0,0-.06.26-.1.53-.15.8v0c-.39,2.12-.8,4.38-1.23,6.76-.15.8-.29,1.61-.44,2.43-.3,1.6-.6,3.24-.9,4.93-.08.39-.15.78-.21,1.18q-.69,3.69-1.39,7.64c-.06.27-.1.54-.15.81-.23,1.24-.46,2.49-.68,3.77a1.59,1.59,0,0,0-.06.3l-.33,1.82q-.68,3.66-1.36,7.49c-.12.63-.24,1.27-.35,1.92-.24,1.29-.47,2.59-.71,3.9-.3,1.63-.6,3.27-.9,4.94s-.61,3.34-.91,5c-.16.85-.31,1.7-.47,2.55-.18,1-.37,2-.56,3.07H222.79l-3.47-35.52-.12-1.26-.14-1.36h0l-.68-6.95h0l-.59-6L215,360Z" style="fill:#263238"></path><path d="M329.71,440H236.5c-.16-8.58-.33-16.88-.54-24.71h0c0-.19,0-.38,0-.57,0,0-10.88-6.44-16.74-11.49a20.69,20.69,0,0,1-2.74-2.72s0,0,0,0h0c-3.75-4.78-7.51-23.16-15.29-40.45h114C333.71,396,332.41,424.88,329.71,440Z" style="fill:#37474f"></path><path d="M213.76,399.24c5.55,2.27,10.54,5.76,15.46,9.13,5.11,3.49,9.8,7.53,14.72,11.28.19.15,0,.46-.2.32-5.18-3.31-10.61-6.22-15.74-9.63-5-3.31-10.16-6.53-14.49-10.7C213.34,399.48,213.53,399.14,213.76,399.24Z" style="fill:#263238"></path><path d="M213.06,367.17c.66,3.55,1.52,7.07,2.29,10.6.72,3.31,1.25,6.68,2.12,10a16.92,16.92,0,0,0,4.64,8.34c1.3,1.21,2.73,2.28,4.12,3.38.74.6,1.55,1.17,2.33,1.78-.11-.47-.19-1-.27-1.43-.24-1.35-.47-2.69-.69-4-.5-3-1-6-1.44-9-.9-5.89-1.73-11.84-3-17.67a.19.19,0,0,1,.37-.1c1.47,5.78,3.09,11.5,4.36,17.33.63,2.85,2.87,17,3,18s.18,2.07.22,3.1a12,12,0,0,1,0,3.17.26.26,0,0,1-.48,0h0a12.84,12.84,0,0,1-.9-3.06c-.26-1-.49-2-.67-3.06-.06-.36-.11-.74-.16-1.12-1.39-.85-2.69-2-4-2.9s-2.82-2-4.15-3.12a15.92,15.92,0,0,1-5.07-7.92A57.82,57.82,0,0,1,214,379.3c-.45-4-.77-8-1.33-12C212.66,367,213,366.93,213.06,367.17Z" style="fill:#263238"></path><path d="M308.93,396c-1.49-.78-7.25.6-17.74-1.2a12,12,0,0,1-5.67-2.3c-2.73-2.23-4.8-5.82-6.45-8.89a45.65,45.65,0,0,1-4.52-11c-.05-.23-.39-.12-.35.1.39,2.17.61,4.34,1.18,6.49a39.58,39.58,0,0,0,2.17,5.89c1.58,3.56,3.44,7.38,6.63,9.79,3.35,2.52,8,3,12.08,3.28,2.35.16,11.55-.09,12.79-1.4A.51.51,0,0,0,308.93,396Z" style="fill:#263238"></path><path d="M304.89,365.21c1.06,3,2.09,6,2.94,9.08s1.72,6.11,2.5,9.18a177.17,177.17,0,0,1,3.56,18.65,135.65,135.65,0,0,1,1.3,18.89l-.08,4.75c-.06,1.58-.23,3.15-.34,4.74l-.15,2.38c-.09.78-.22,1.57-.33,2.35-.23,1.57-.44,3.15-.64,4.74a82.19,82.19,0,0,0,3.1-18.91,104.55,104.55,0,0,0-.88-19.21,127.61,127.61,0,0,0-4-18.78A106.88,106.88,0,0,0,304.89,365.21Z" style="fill:#263238"></path><path d="M205.81,220.55c-39,33.6-66.92,62.69-66.91,76.24,0,30.36,15.87,37.31,18.74,36.42C188,323.76,208.58,267,222.11,232.68,235.54,198.64,217,210.93,205.81,220.55Z" style="fill:#eb9481"></path><path d="M150.39,268.42l47.43,26.89s20.67-42.23,28-67.61-2.94-24.82-25.83-5.39S150.39,268.42,150.39,268.42Z" style="fill:#FFC727"></path><path d="M203.83,225.56a16.62,16.62,0,0,0-2.12-3.48l-.24-.27c0,.14,0,.28.07.41a16,16,0,0,0,1.24,3.82,15.44,15.44,0,0,0,2.36,3.75A15.89,15.89,0,0,0,203.83,225.56ZM181.44,242a15.4,15.4,0,0,0-3.75,2.35,17.11,17.11,0,0,0,8-3.66A15.43,15.43,0,0,0,181.44,242Zm45.19-23.18a8.1,8.1,0,0,0,1.21-.24c0-.26.07-.51.1-.76A12.27,12.27,0,0,0,226.63,218.86ZM187.17,272.6a15.54,15.54,0,0,0-1,4.32,15,15,0,0,0,2.06-3.92,15.93,15.93,0,0,0,1-4.31A15.48,15.48,0,0,0,187.17,272.6Zm32.61-34.54a15.54,15.54,0,0,0-1,4.32,15,15,0,0,0,2.06-3.92,15.93,15.93,0,0,0,1-4.31A15.48,15.48,0,0,0,219.78,238.06ZM163.89,268a15.54,15.54,0,0,0-4.32-1,17.18,17.18,0,0,0,8.24,3A16,16,0,0,0,163.89,268Zm39.29-14.57a15.54,15.54,0,0,0-4.32-1,17.18,17.18,0,0,0,8.24,3A16,16,0,0,0,203.18,253.39Zm2.15,5.12s0,.07,0,.1l.18,0A1.77,1.77,0,0,0,205.33,258.51Z" style="fill:#fff"></path><path d="M160.38,261.25c18.25,12.83,36,21.27,39.55,23.4.16.1.31-.18.13-.28-3.59-1.9-23-14.49-39.53-23.42C160.34,260.85,160.21,261.13,160.38,261.25Z" style="fill:#263238"></path><path d="M184.87,288l12.95,7.34s20.67-42.23,28-67.61c2.69-9.35,3-15.18,1.17-17.84Z" style="opacity:0.1"></path><path d="M190.82,379.16h134.9s-20.61-128.72-70.33-172.74c-6.14-5.44-20-4.2-29,.29-3.23,1.61-14.82,17.82-18.13,33.16S190.46,378.7,190.82,379.16Z" style="fill:#FFC727"></path><path d="M266.65,242.56a17.18,17.18,0,0,0,8.24,3.05,17.18,17.18,0,0,0-8.24-3.05Zm-61.33,16.05.18,0a1.77,1.77,0,0,0-.17-.12S205.32,258.58,205.32,258.61Zm30.75,19.21a17.18,17.18,0,0,0,8.24,3.05,16,16,0,0,0-3.92-2.06A15.54,15.54,0,0,0,236.07,277.82Zm18.33,55.9a15.71,15.71,0,0,0,3.92,2.07,15.54,15.54,0,0,0,4.32,1,17.06,17.06,0,0,0-8.24-3.06Zm30.87-39a17.18,17.18,0,0,0,8.24,3.05,16,16,0,0,0-3.92-2.06A15.54,15.54,0,0,0,285.27,294.75ZM313,372.48a17.06,17.06,0,0,0,8.24,3.06,17.33,17.33,0,0,0-8.24-3.06Zm-59.59-4.87a17.06,17.06,0,0,0,8.24,3.06,15.67,15.67,0,0,0-3.92-2.06A15.21,15.21,0,0,0,253.36,367.61Zm-62.16,7.21a20,20,0,0,0,2.5,1.14,15.62,15.62,0,0,0,4.32,1,15.83,15.83,0,0,0-3.92-2.06,18,18,0,0,0-2.81-.8C191.25,374.34,191.23,374.59,191.2,374.82Zm23.66-42.62a17.18,17.18,0,0,0,8.24,3.05,15.67,15.67,0,0,0-3.92-2.06A15.2,15.2,0,0,0,214.86,332.2ZM256.08,227a17.18,17.18,0,0,0,3.05-8.24,15.67,15.67,0,0,0-2.06,3.92A15.2,15.2,0,0,0,256.08,227Zm29.69,151a17.18,17.18,0,0,0,3.05-8.24,15.5,15.5,0,0,0-2.06,3.92A15.2,15.2,0,0,0,285.77,378Zm5.92-37.59a15.37,15.37,0,0,0,2.07-3.92,15.55,15.55,0,0,0,1-4.31,17,17,0,0,0-3.06,8.23Zm-51.33-22.34a17.18,17.18,0,0,0,3-8.24,15.83,15.83,0,0,0-2.06,3.92A15.54,15.54,0,0,0,240.36,318.09Zm18.16-48.19a17.06,17.06,0,0,0,3.06-8.24,15.71,15.71,0,0,0-2.07,3.92A15.54,15.54,0,0,0,258.52,269.9ZM232.7,379.16h1.2a14.46,14.46,0,0,0,.75-3.63A15.54,15.54,0,0,0,232.7,379.16Zm-37.27-27.31a15.37,15.37,0,0,0,2.07-3.92,15.92,15.92,0,0,0,1-4.31,17.07,17.07,0,0,0-3.06,8.23Zm23.36-109.47a15,15,0,0,0,2.06-3.92,15.93,15.93,0,0,0,1-4.31,17,17,0,0,0-3.06,8.23Zm7.84-23.52a17.11,17.11,0,0,0,8-3.66,15.43,15.43,0,0,0-4.23,1.31A15.71,15.71,0,0,0,226.63,218.86Zm44.14,101.06a15.78,15.78,0,0,0,4.23-1.31,15.5,15.5,0,0,0,3.76-2.36,17.35,17.35,0,0,0-8,3.67Zm34.9,35.15a17.11,17.11,0,0,0,8-3.66,17.11,17.11,0,0,0-8,3.66Zm-91.22,8.76a17.11,17.11,0,0,0,8-3.66,15.43,15.43,0,0,0-4.23,1.31A15.71,15.71,0,0,0,214.45,363.83Zm2.9-55.74a15.8,15.8,0,0,0,4.23-1.32,15.1,15.1,0,0,0,3.75-2.35,17,17,0,0,0-8,3.67Zm9.28-47.33a17.11,17.11,0,0,0,8-3.66,17.11,17.11,0,0,0-8,3.66Zm57,7a17.2,17.2,0,0,0,3.66,8,17.2,17.2,0,0,0-3.66-8Zm-44.81,77.69a15.78,15.78,0,0,0,1.31,4.23,15.44,15.44,0,0,0,2.36,3.75,17.26,17.26,0,0,0-3.67-8Zm-27.43-68.57a15.43,15.43,0,0,0,1.31,4.23,15.65,15.65,0,0,0,2.35,3.76,17.08,17.08,0,0,0-3.66-8Zm61.32,72.56a17.2,17.2,0,0,0,3.66,8,15.43,15.43,0,0,0-1.31-4.23A15.77,15.77,0,0,0,272.71,349.44Zm35.12-37.55a15.43,15.43,0,0,0,1.31,4.23,15.65,15.65,0,0,0,2.35,3.76,15.5,15.5,0,0,0-1.31-4.24A15.91,15.91,0,0,0,307.83,311.89Zm-47.78-21a15.78,15.78,0,0,0,1.31,4.23,16,16,0,0,0,2.35,3.76,15.16,15.16,0,0,0-1.31-4.24A15.59,15.59,0,0,0,260.05,290.92ZM242.47,236.1a15.78,15.78,0,0,0,1.31,4.23,15.44,15.44,0,0,0,2.36,3.75,17,17,0,0,0-3.67-8Z" style="fill:#fff"></path><path d="M272.75,217.09c41.46,30.55,71.47,57.45,72.47,71,2.26,30.28-13,38.41-15.94,37.74-31-7.13-55.78-62.21-71.86-95.38C241.45,197.48,260.88,208.34,272.75,217.09Z" style="fill:#eb9481"></path><path d="M331.62,260.63,286.36,291s-23.79-40.55-33-65.3,1.07-25,25.36-7.33S331.62,260.63,331.62,260.63Z" style="fill:#FFC727"></path><path d="M271,243.55a15.54,15.54,0,0,0-4.32-1,17.18,17.18,0,0,0,8.24,3.05A15.5,15.5,0,0,0,271,243.55Zm-13.9-20.83a15.2,15.2,0,0,0-1,4.32,17.18,17.18,0,0,0,3.05-8.24A15.67,15.67,0,0,0,257.07,222.72Zm63.59,38.74a15.2,15.2,0,0,0-1,4.32,17.18,17.18,0,0,0,3.05-8.24A15.67,15.67,0,0,0,320.66,261.46Zm-35.21-38.08c-.19.42-.37.84-.53,1.26a15.54,15.54,0,0,0-1,4.32A15.54,15.54,0,0,0,286,225q.18-.49.33-1Zm13.42,26.1a15.4,15.4,0,0,0-3.75,2.35,17.11,17.11,0,0,0,8-3.66A15.43,15.43,0,0,0,298.87,249.48Zm-12.89,22a15.46,15.46,0,0,0-2.35-3.76,17.2,17.2,0,0,0,3.66,8A15.32,15.32,0,0,0,286,271.52Z" style="fill:#fff"></path><path d="M321.12,254.25c-17.22,14.16-34.29,23.92-37.66,26.31-.16.11-.33-.16-.16-.27,3.44-2.17,21.87-16.19,37.65-26.33C321.13,253.84,321.29,254.11,321.12,254.25Z" style="fill:#263238"></path><path d="M289.26,289a26.38,26.38,0,0,0-2.75,1.49c-5.23-8.69-4.25-6.68-9.56-15.33q-3.9-6.35-7.8-12.71c-2.7-4.41-5.17-9-8.11-13.28-.08-.13-.25,0-.19.12,1.83,4.23,4.19,8.28,6.44,12.33-.48-.62-.93-1.26-1.45-1.85-1.15-1.32-2.28-2.65-3.32-4.06-.16-.22-.52,0-.36.22,1,1.34,1.89,2.74,2.77,4.16s1.86,2.77,2.85,4.12,2,2.54,3,3.78l.38.46c1.44,2.52,2.84,5.07,4.33,7.57,5.24,8.74,10.46,15.53,10.62,15.48a25.46,25.46,0,0,0,3.28-2.25C289.53,289.09,289.39,288.93,289.26,289Z" style="fill:#263238"></path><path d="M324.52,322.89c-5.39-12.6-10.06-29.86,9.25-80.61,2.67-7,57.31-1.51,54.85,6.14-3.11,9.63-17.26,46.34-18.64,48.89C358.4,318.85,328.17,331.44,324.52,322.89Z" style="fill:#eb9481"></path><path d="M321.08,312.59c-.38-4.11-.46-8.21-.44-12.31,0-2,.08-4.09.17-6.13s.36-4,.64-6.07c.6-4,1.34-8.08,2.15-12.11s1.67-8.05,2.73-12a93.64,93.64,0,0,0-3.81,11.79c-1,4-1.89,8-2.52,12.15a49.28,49.28,0,0,0-.65,6.22c-.09,2.07-.06,4.15,0,6.22A59.76,59.76,0,0,0,321.08,312.59Z" style="fill:#263238"></path><path d="M345.38,221.44c-8.07,6.9-14.11,27.1-14.11,27.1l52.29,14s7.17-15.6,14.31-21.28c2.08-1.65,12.58-10.73,23.34-18.89,12.2-9.25,23.82-20.52,24.15-22.34.63-3.5-4.61-6.28-14.3-2S403.93,214,402.7,214.37a9.34,9.34,0,0,1-1.29.18h0c-.56-.11-11.74-10.18-18.4-8.76S346.36,219.76,345.38,221.44Z" style="fill:#eb9481"></path><path d="M388.39,229.21s25.29-5.17,29-9.07,29.47-23.89,30.17-27.38-4.61-6.28-14.3-2-27.12,15.93-28.36,16.35-23.95,1.3-26,2S388.39,229.21,388.39,229.21Z" style="fill:#eb9481"></path><path d="M403,228.31c2.58-1.16,5.11-2.43,7.64-3.69,1.26-.65,2.51-1.31,3.75-2,.62-.35,1.24-.69,1.85-1.07.31-.17.61-.38.92-.58a8.46,8.46,0,0,0,.88-.7c4.31-3.61,8.63-7.27,12.92-10.94s8.54-7.35,12.74-11.19a17.74,17.74,0,0,0,2.79-3.36,8.16,8.16,0,0,0,.93-2,3.65,3.65,0,0,0,0-2.33,3,3,0,0,0-1.67-1.6,6.49,6.49,0,0,0-2.15-.44,15.07,15.07,0,0,0-4.24.45,17.38,17.38,0,0,1,4.2-.05,6,6,0,0,1,1.94.56,2.29,2.29,0,0,1,1.22,1.34c.36,1.16-.27,2.5-1,3.59a17.55,17.55,0,0,1-2.77,3c-4.32,3.57-8.66,7.23-12.94,10.9s-8.55,7.38-12.71,11.24a21,21,0,0,1-3.36,2.38c-1.19.75-2.41,1.46-3.62,2.18Z" style="fill:#263238"></path><path d="M383.41,226.18s27.69-5.78,31.39-9.67,29.46-23.9,30.17-27.38-4.62-6.29-14.3-2-27.13,15.92-28.37,16.35-23.07,3.55-25.14,4.26S383.41,226.18,383.41,226.18Z" style="fill:#eb9481"></path><path d="M397.91,227.05c3.09-1.57,6.12-3.26,9.16-5,1.5-.87,3-1.75,4.47-2.67.74-.45,1.48-.92,2.21-1.42a19.88,19.88,0,0,0,2.09-1.64q7.88-6.75,15.7-13.61l7.77-6.91,1.93-1.75a21,21,0,0,0,1.9-1.88,10.87,10.87,0,0,0,1.54-2.28,4.64,4.64,0,0,0,.52-2.88,2.71,2.71,0,0,0-.76-1.42,3.55,3.55,0,0,0-1.29-.78,8.19,8.19,0,0,0-2.74-.39,23.4,23.4,0,0,0-5.23.74,30.16,30.16,0,0,0-9.51,4.24,32.06,32.06,0,0,1,9.67-3.53,24.22,24.22,0,0,1,5.06-.52,7,7,0,0,1,2.37.43,1.88,1.88,0,0,1,1.31,1.43,3.53,3.53,0,0,1-.51,2.12,10.36,10.36,0,0,1-1.41,2c-1.1,1.19-2.5,2.29-3.78,3.44l-7.83,6.83c-5.2,4.58-10.4,9.16-15.51,13.85a18.53,18.53,0,0,1-1.93,1.65c-.68.5-1.39,1-2.1,1.48-1.43,1-2.88,1.91-4.34,2.84Z" style="fill:#263238"></path><path d="M383.79,227s22.87-10.64,26.31-14.27,21.89-16.18,22.55-19.42-4.3-5.85-13.32-1.86-19.71,8.76-20.86,9.16-19.38,6.47-21.31,7.13S383.79,227,383.79,227Z" style="fill:#eb9481"></path><path d="M390.76,226.05c3.92-2.13,7.81-4.33,11.7-6.51,2-1.09,3.88-2.2,5.81-3.33l1.45-.85a13.68,13.68,0,0,0,1.42-1c.91-.68,1.77-1.38,2.64-2.1,3.43-2.87,6.8-5.81,10.06-8.87,1.63-1.52,3.25-3.07,4.84-4.65.79-.79,1.58-1.59,2.35-2.42a20.67,20.67,0,0,0,2.22-2.68,2.82,2.82,0,0,0,.41-2.13,2.91,2.91,0,0,0-1.33-1.7,8.34,8.34,0,0,0-3.49-1.06,14.43,14.43,0,0,0-6.91.94c-4.16,1.7-8.24,3.48-12.34,5.25s-8.23,3.59-12.21,5.4c-2.05.81-4.16,1.57-6.25,2.33s-4.18,1.59-6.25,2.45c4.36-1.06,8.64-2.26,12.94-3.59l12.32-5.31c4.1-1.74,8.22-3.5,12.34-5.14a13.29,13.29,0,0,1,6.21-.89,7.07,7.07,0,0,1,2.87.83,1.22,1.22,0,0,1,.49,1.9,22.06,22.06,0,0,1-2,2.47c-.74.81-1.52,1.61-2.3,2.4-1.55,1.58-3.15,3.13-4.77,4.66-3.24,3.05-6.47,6.12-9.83,9-.84.73-1.68,1.45-2.55,2.14a27,27,0,0,1-2.73,1.83l-5.7,3.51Z" style="fill:#263238"></path><path d="M159.7,330.86c6-12.29,11.61-29.28-5-81-2.3-7.15-57.15-4.52-55.09,3.24,2.59,9.79,14.78,47.19,16,49.81C126.07,325,155.6,339.2,159.7,330.86Z" style="fill:#eb9481"></path><path d="M163.67,320.76A59.22,59.22,0,0,0,166,308.58c.18-2.06.33-4.13.35-6.21a51.74,51.74,0,0,0-.32-6.24,120.75,120.75,0,0,0-1.89-12.27,93.34,93.34,0,0,0-3.17-12c.84,4,1.48,8.1,2.09,12.16s1.12,8.14,1.5,12.22c.18,2,.34,4.07.33,6.09s-.06,4.09-.16,6.13C164.57,312.58,164.26,316.67,163.67,320.76Z" style="fill:#263238"></path><path d="M147.15,227.65C153.75,236,156,254,156,254l-54.21,6.66s-4.06-16.68-10-23.62c-1.72-2-10.3-12.93-19.29-23-10.21-11.42-19.46-24.7-19.43-26.55.05-3.55,5.72-5.28,14.41.78s23.59,20.82,24.71,21.47a9.18,9.18,0,0,0,1.24.42h0c.58,0,13.48-7.75,19.74-5.08S146.52,225.82,147.15,227.65Z" style="fill:#eb9481"></path><path d="M103.45,227.05s-23.83-9.91-26.71-14.45S52.39,183.52,52.36,180s5.73-5.29,14.42.77,23.58,20.82,24.71,21.48,23.26,5.85,25.15,6.95S103.45,227.05,103.45,227.05Z" style="fill:#eb9481"></path><path d="M89.24,223.37c-2.31-1.64-4.54-3.37-6.79-5.09-1.11-.87-2.21-1.77-3.3-2.68-.54-.46-1.08-.92-1.61-1.4-.27-.23-.53-.5-.79-.75a10.15,10.15,0,0,1-.73-.85c-3.54-4.37-7.08-8.79-10.59-13.21s-7-8.86-10.37-13.43A18.35,18.35,0,0,1,53,182.14a7.91,7.91,0,0,1-.52-2.17,3.66,3.66,0,0,1,.46-2.29,3,3,0,0,1,2-1.25,6.45,6.45,0,0,1,2.19,0,15.38,15.38,0,0,1,4.07,1.25,17.79,17.79,0,0,0-4.11-.85,5.83,5.83,0,0,0-2,.18,2.23,2.23,0,0,0-1.45,1.08c-.58,1.07-.22,2.51.31,3.72A17,17,0,0,0,56,185.28c3.55,4.33,7.11,8.76,10.61,13.18s7,8.87,10.33,13.46a20.78,20.78,0,0,0,2.83,3c1,1,2.09,1.89,3.14,2.83Z" style="fill:#263238"></path><path d="M108.92,225s-26.08-11-29-15.5-24.35-29.09-24.38-32.64,5.73-5.29,14.42.77,23.58,20.82,24.71,21.47,22,7.9,23.87,9S108.92,225,108.92,225Z" style="fill:#eb9481"></path><path d="M94.52,223.11c-2.74-2.14-5.39-4.37-8-6.61-1.31-1.14-2.61-2.29-3.88-3.47-.64-.6-1.28-1.2-1.9-1.82a20.35,20.35,0,0,1-1.74-2q-6.43-8.14-12.8-16.37l-6.31-8.26-1.56-2.09a19.89,19.89,0,0,1-1.5-2.21,10.72,10.72,0,0,1-1.08-2.53,4.67,4.67,0,0,1,0-2.93,2.77,2.77,0,0,1,1-1.25,3.65,3.65,0,0,1,1.42-.52,8.11,8.11,0,0,1,2.75.14,23.65,23.65,0,0,1,5,1.73,30.19,30.19,0,0,1,8.52,6,31.9,31.9,0,0,0-8.81-5.31,23.93,23.93,0,0,0-4.87-1.48,7,7,0,0,0-2.41,0,1.88,1.88,0,0,0-1.56,1.16,3.61,3.61,0,0,0,.09,2.17,11,11,0,0,0,1,2.21c.85,1.38,2,2.73,3.06,4.1l6.37,8.21c4.23,5.49,8.46,11,12.58,16.56a18.21,18.21,0,0,0,1.57,2c.58.63,1.18,1.25,1.79,1.86,1.21,1.22,2.46,2.42,3.71,3.62Z" style="fill:#263238"></path><path d="M108.39,225.76s-20.42-14.82-23.1-19S66.9,186.66,66.88,183.35s5.33-4.93,13.42.72S98,196.44,99,197.05s17.8,10,19.56,11.07S108.39,225.76,108.39,225.76Z" style="fill:#eb9481"></path><path d="M101.73,223.5c-3.45-2.85-6.84-5.75-10.24-8.64q-2.55-2.16-5.07-4.37l-1.26-1.12A13.82,13.82,0,0,1,84,208.16c-.76-.84-1.47-1.7-2.18-2.57-2.82-3.47-5.57-7-8.18-10.63-1.31-1.81-2.61-3.64-3.86-5.49-.63-.93-1.25-1.87-1.85-2.83a20.14,20.14,0,0,1-1.66-3.06,2.81,2.81,0,0,1,0-2.17A2.92,2.92,0,0,1,67.85,180a8.46,8.46,0,0,1,3.63-.38,14.53,14.53,0,0,1,6.6,2.25c3.76,2.46,7.42,5,11.11,7.52s7.39,5.09,11,7.63c1.86,1.19,3.79,2.33,5.69,3.49s3.8,2.35,5.66,3.59c-4.07-1.87-8-3.86-12-6l-11.08-7.57c-3.7-2.49-7.4-5-11.13-7.41a13.2,13.2,0,0,0-5.93-2,7,7,0,0,0-3,.25,1.22,1.22,0,0,0-.84,1.77,20.56,20.56,0,0,0,1.52,2.82q.87,1.41,1.8,2.79c1.22,1.85,2.5,3.68,3.79,5.49,2.59,3.62,5.18,7.25,7.92,10.76.68.87,1.37,1.74,2.09,2.58A27,27,0,0,0,87,209.86l4.92,4.54Z" style="fill:#263238"></path><path d="M258.85,213.65a46.47,46.47,0,0,1-16.22,17.29,23.48,23.48,0,0,1-10.88,3.8,9.73,9.73,0,0,1-5.82-1.23,11.75,11.75,0,0,1-3.78-4.62,24.06,24.06,0,0,1-2.07-6.6,57,57,0,0,1-.78-7.84c0-.1-.15-.08-.15,0,.08,2.49-.05,5,.21,7.46a25.62,25.62,0,0,0,1.38,6.41,14.68,14.68,0,0,0,3.26,5.24,8.8,8.8,0,0,0,5.63,2.46,21.11,21.11,0,0,0,11.81-2.94,39.84,39.84,0,0,0,9.7-7.57,44.22,44.22,0,0,0,7.92-11.78A.12.12,0,1,0,258.85,213.65Z" style="fill:#263238"></path><path d="M228.33,229.22c7.7,2.15,21.52-9.19,27.18-18.61.38-.65-.35-7.64-.84-16.19-.27-5.19-.46-11-.25-16.26.05-1.08-33.49,6.73-33.49,6.73s2.82,11.21,2.39,20.43a11.11,11.11,0,0,1-.32,2.16c0,.1,0,.22-.06.36C222.1,211.94,220.89,227.14,228.33,229.22Z" style="fill:#eb9481"></path><path d="M226.34,208.15a20.5,20.5,0,0,1-3.39-.31,2.69,2.69,0,0,1,.06-.36,11.13,11.13,0,0,0,.31-2.16c.42-9.21-2.39-20.43-2.39-20.43s27.23-6.34,32.59-6.81C252.25,184.15,245.92,208.51,226.34,208.15Z" style="fill:#263238"></path><path d="M262,140.78c2.23,12.1-7.8,45.17-17,51.76-13.31,9.54-33.17,8.33-40.79-7.22-7.39-15.08,6.44-57.95,16.52-63.74C235.56,113.06,258.67,122.9,262,140.78Z" style="fill:#eb9481"></path><path d="M231.49,155.9c0-.08.14.17.11.25-.81,2.19-1.35,4.83.4,6.23.06,0,0,.15-.06.11C229.62,161.34,230.38,157.85,231.49,155.9Z" style="fill:#263238"></path><path d="M234.23,154.25c3.64.9,1.56,8.13-1.81,7.29S231.17,153.49,234.23,154.25Z" style="fill:#263238"></path><path d="M218,151.53c0-.09-.2.06-.23.15-.57,2.26-1.61,4.75-3.84,4.91-.07,0-.1.12,0,.13C216.43,157.08,217.77,153.76,218,151.53Z" style="fill:#263238"></path><path d="M216.63,148.62c-3.52-1.31-5.88,5.83-2.62,7S219.58,149.72,216.63,148.62Z" style="fill:#263238"></path><path d="M237.44,154.85a28.42,28.42,0,0,1-2.84-1.2,5,5,0,0,1-2.67-1.78,1.58,1.58,0,0,1,.38-1.9c1.18-.93,2.66-.68,4-.16a5.78,5.78,0,0,1,3.17,2.7A1.69,1.69,0,0,1,237.44,154.85Z" style="fill:#263238"></path><path d="M216.31,140.91a29,29,0,0,0,3.09.12,5,5,0,0,0,3.17-.48,1.59,1.59,0,0,0,.46-1.89c-.68-1.34-2.12-1.74-3.54-1.83a5.76,5.76,0,0,0-4,1.1A1.69,1.69,0,0,0,216.31,140.91Z" style="fill:#263238"></path><path d="M222.53,178.78a3.5,3.5,0,0,1-2.25.74,6.24,6.24,0,0,1-2.2-1.27c-.06-.05-.16,0-.13.08a3.11,3.11,0,0,0,2.44,2,2.48,2.48,0,0,0,2.33-1.43C222.79,178.83,222.63,178.73,222.53,178.78Z" style="fill:#263238"></path><path d="M224.35,174.9c-2.55-2-6.35-2.71-8.78-3.11-.25-.11-.34-.7-.31-1h0c0-.09,1.56-4.76,1.56-4.76-.73.13-4.37.63-4.05-.25,2.64-7.34,5.58-15.5,9.76-22.24a.22.22,0,0,1,.39.18c-2.26,7.15-5.76,13.86-8.15,21a14,14,0,0,1,3.93,0c.22.14-1.91,4.95-2.06,5.74,0,0,5,0,8,3.46C225.46,174.82,225.56,175.84,224.35,174.9Z" style="fill:#263238"></path><path d="M213,128.56c9.58,11.61,29.47,3.92,29.47,3.92a13.51,13.51,0,0,0,10.81,12s-3.45,20.88,1.88,22.37c8.13,2.28,18.55-24.55,17.55-30.7s-7.49-9.51-7.49-9.51.7-4.35-3.22-9.62c-4.32-5.84-25.09-5.62-25.09-5.62a18.49,18.49,0,0,0-3-8,5.22,5.22,0,0,0-7.42-1.41,12.42,12.42,0,0,1,.52,5.54c-.74,6.19-5.57,4.8-4-.55a8.72,8.72,0,0,1,3.47-5c-1.37-4.19-4.94-6.45-7.84-5.25C213.34,98.9,205,118.91,213,128.56Z" style="fill:#263238"></path><path d="M256.22,138.42a.27.27,0,1,1,.47.27A54.3,54.3,0,0,0,252,150.64c-.91,4.15-1.69,15,4.51,15.51a.24.24,0,0,1,0,.47c-4.39.75-5.63-5-5.91-8.78C250.06,151,252.85,144.24,256.22,138.42Z" style="fill:#263238"></path><path d="M219,96.54a0,0,0,0,1,0,.07c-8.45,6.09-13.16,16.85-9.95,27.14,4,12.94,20.52,10.08,30.49,7.92.49-.11.72.63.23.75-9.77,2.37-26.4,4.84-31-7.2C204.63,114.49,209.73,102.58,219,96.54Z" style="fill:#263238"></path><path d="M263.47,126.12c7.73,3.14,12.35,8.55,10.71,17.22a32.08,32.08,0,0,1-15.06,21,.33.33,0,0,1-.34-.56c5.54-4,10.2-8.83,12.88-15.23,2-4.73,3-10.36.62-15.16-1.69-3.46-5.73-5.33-9-7C263.13,126.31,263.28,126.05,263.47,126.12Z" style="fill:#263238"></path><path d="M234,112.43c11.7-3.24,33.06-3.36,31.13,14.07,0,.14-.26.12-.25,0,1-17.74-19.2-15.44-30.8-13.57C233.79,113,233.73,112.5,234,112.43Z" style="fill:#263238"></path><path d="M253.18,167.31s9.08-9.87,13.66-6.49-3.27,18.41-9.37,19.79a6,6,0,0,1-7.48-4.24Z" style="fill:#eb9481"></path><path d="M264.48,165.07a.08.08,0,0,1,0,.16c-4.29,1.1-6.94,4.59-9,8.3,1.42-1.34,3.18-1.95,5-.23.1.09,0,.24-.14.2a3.68,3.68,0,0,0-4.17.73,17.69,17.69,0,0,0-2.34,3c-.24.34-.87.06-.68-.34a.41.41,0,0,1,.05-.09C253.83,171.57,258.84,164.85,264.48,165.07Z" style="fill:#263238"></path><path d="M264,451.47c-.07.41-.15.82-.23,1.24.07-.41.15-.83.22-1.24Z" style="fill:#ebebeb"></path></g><g id="freepik--speech-bubble--inject-38"><path d="M294.58,107.34a7.3,7.3,0,1,1-7.3-7.29A7.3,7.3,0,0,1,294.58,107.34Z" style="fill:#fff"></path><path d="M294.58,107.34a7.55,7.55,0,1,1-7.3-7.54,7.57,7.57,0,0,1,7.3,7.54Zm0,0a7.05,7.05,0,1,0-2.19,5.11A7.09,7.09,0,0,0,294.58,107.34Z" style="fill:#263238"></path><path d="M349.76,68.07A34.72,34.72,0,1,1,315,33.36,34.72,34.72,0,0,1,349.76,68.07Z" style="fill:#fff"></path><path d="M349.76,68.07a34.86,34.86,0,0,1-10.12,24.6A35,35,0,1,1,315,33.1a34.92,34.92,0,0,1,24.6,10.37,34.75,34.75,0,0,1,10.12,24.6Zm0,0A34.47,34.47,0,0,0,315,33.61a34.46,34.46,0,1,0,24.5,59,34.7,34.7,0,0,0,10.22-24.49Z" style="fill:#263238"></path><path d="M277.69,119.37a4.06,4.06,0,1,1-4.06-4.06A4.06,4.06,0,0,1,277.69,119.37Z" style="fill:#fff"></path><path d="M277.69,119.37a4.33,4.33,0,0,1-4.06,4.31,4.41,4.41,0,0,1-3.18-1.14,4.32,4.32,0,1,1,7.24-3.17Zm0,0a3.81,3.81,0,0,0-4.06-3.81,3.82,3.82,0,1,0,4.06,3.81Z" style="fill:#263238"></path><path d="M308.42,75a12.71,12.71,0,0,1,.88-4.83,8.05,8.05,0,0,1,3.63-3.74c.55-.33,1.22-.71,2-1.13a15.91,15.91,0,0,0,2.36-1.51,8.48,8.48,0,0,0,1.95-2.06,4.76,4.76,0,0,0,.8-2.72,4.53,4.53,0,0,0-.44-2,4.61,4.61,0,0,0-2.83-2.39,6.5,6.5,0,0,0-1.95-.3,5.75,5.75,0,0,0-2.2.41,7.84,7.84,0,0,0-1.78,1,9.21,9.21,0,0,0-1.43,1.43,16,16,0,0,0-1.07,1.51l-4.78-3.29a10.71,10.71,0,0,1,1.89-3,11.8,11.8,0,0,1,2.7-2.23,12.57,12.57,0,0,1,3.26-1.37,14.23,14.23,0,0,1,3.63-.47,14.46,14.46,0,0,1,4.12.6,10.5,10.5,0,0,1,3.65,1.93,10,10,0,0,1,2.64,3.38,12.2,12.2,0,0,1,.61,8,8.52,8.52,0,0,1-1.19,2.44,10.26,10.26,0,0,1-1.81,2,20.49,20.49,0,0,1-2.36,1.7c-.73.44-1.47.86-2.2,1.27a13.15,13.15,0,0,0-2,1.34,6.66,6.66,0,0,0-1.49,1.7,4.53,4.53,0,0,0-.57,2.34Zm.11,12.8V80.24h6.1v7.58Z" style="fill:#FFC727"></path></g></svg>